<svg xmlns="http://www.w3.org/2000/svg" viewBox="0 0 80 32" width="80" height="32" fill="none"
    style="width: 5em; height: 2em;">
    <path fill="#BF3A33"
        d="M16.32 22.038c-.89 0-1.499-.22-1.832-.663-.334-.442-.497-1.01-.497-1.704 0-.43.029-.89.082-1.383.052-.492.134-.984.233-1.49.1-.504.2-.997.299-1.49.1-.492.205-.953.316-1.382a5.976 5.976 0 0 0-1.211-.574c-.48-.164-.901-.265-1.282-.29-.556 1.748-1.1 3.206-1.644 4.374-.544 1.174-1.123 2.115-1.744 2.835-.62.72-1.31 1.224-2.077 1.521-.766.297-1.632.448-2.61.448a4.316 4.316 0 0 1-1.562-.29 4.212 4.212 0 0 1-1.398-.878 4.283 4.283 0 0 1-1.013-1.47C.123 19.013 0 18.325 0 17.536c0-.909.199-1.805.597-2.69a7.52 7.52 0 0 1 1.726-2.385c.755-.707 1.668-1.276 2.744-1.705 1.077-.43 2.276-.644 3.61-.644h.697c.287 0 .52.013.696.038a25.923 25.923 0 0 1 1.381-3.661 13.22 13.22 0 0 1 2.13-3.264 10.412 10.412 0 0 1 3.008-2.33C17.74.296 19.08 0 20.614 0h.498c.199 0 .41.013.632.038.222.025.444.05.667.07.222.025.397.05.532.069a142.355 142.355 0 0 0-2.03 4.936 80.016 80.016 0 0 0-1.78 5.044 57.128 57.128 0 0 0-1.28 4.716c-.334 1.496-.51 2.803-.533 3.927.023.265.088.46.199.593.111.133.298.196.568.196h1.597l-.767 2.437h-2.592l-.006.012ZM2.884 17.051c0 .745.17 1.288.515 1.635s.79.518 1.345.518c.469 0 .89-.114 1.282-.341.386-.227.76-.594 1.112-1.092.357-.505.696-1.162 1.03-1.976.333-.815.672-1.806 1.03-2.98a4.067 4.067 0 0 0-.469-.057 6.441 6.441 0 0 0-2.627.34 5.42 5.42 0 0 0-1.715.973c-.48.404-.848.865-1.111 1.383a3.48 3.48 0 0 0-.398 1.597m10.275-6.496c.134 0 .31.025.532.07.223.044.45.107.685.176.234.07.468.152.696.234.234.082.427.164.58.233.573-1.982 1.158-3.68 1.743-5.094.585-1.414 1.27-2.62 2.048-3.624a5.394 5.394 0 0 0-1.86.613c-.58.31-1.124.776-1.645 1.401-.52.625-1.012 1.427-1.48 2.405-.468.979-.895 2.178-1.3 3.586Z"></path>
    <path fill="#BF3A33"
        d="M22.475 22.468c-1.041 0-1.779-.209-2.212-.625-.433-.417-.649-1.01-.649-1.774 0-.36.047-.764.135-1.219.087-.454.222-.953.398-1.508l1.427-4.842c.065-.24.158-.556.281-.954.123-.391.234-.801.334-1.218.1-.417.187-.827.263-1.218a5.36 5.36 0 0 0 .117-.985h3.323c0 .24-.035.536-.099.896s-.146.739-.234 1.13c-.088.398-.187.79-.298 1.187-.112.392-.211.745-.299 1.06l-1.428 4.773c-.158.505-.286.947-.397 1.326-.112.385-.17.656-.17.827 0 .36.158.536.468.536.597 0 1.135-.416 1.615-1.256.474-.84 1-2.247 1.58-4.236l1.831-6.275h4.722l-.632 2.084h-1.299l-1.264 4.198c-.532 1.773-1.105 3.188-1.714 4.254-.608 1.067-1.235 1.882-1.878 2.456-.644.575-1.3.953-1.96 1.13a7.657 7.657 0 0 1-1.96.272M34.482 22.038c-1.018 0-1.767-.183-2.247-.555-.474-.373-.714-.985-.714-1.85 0-.625.111-1.338.334-2.153.175-.574.357-1.161.532-1.761.176-.6.375-1.262.597-1.989.222-.732.468-1.546.732-2.455.263-.91.573-1.976.93-3.195h3.423c-.088.266-.252.77-.48 1.528-.234.751-.486 1.585-.766 2.494-.275.909-.55 1.799-.814 2.67-.263.871-.48 1.56-.632 2.064-.269.84-.398 1.377-.398 1.617 0 .334.053.605.164.808.111.202.346.303.697.303h1.527l-.831 2.474h-2.06.006Zm1.896-19.734h3.458l-1.065 3.302h-3.458l1.065-3.302ZM43.927 19.955c-.445.859-.972 1.465-1.58 1.812-.609.347-1.194.517-1.744.517-.907 0-1.597-.309-2.06-.934-.468-.625-.696-1.47-.696-2.55 0-1.08.17-2.241.515-3.498a13.222 13.222 0 0 1 1.515-3.497 9.269 9.269 0 0 1 2.464-2.677c.977-.707 2.095-1.06 3.358-1.06h4.389l-2.896 9.577c-.047.17-.1.353-.164.555-.065.202-.1.398-.1.593 0 .196.065.373.2.537.134.164.362.253.696.253h1.462l-.766 2.443h-2.528c-.667 0-1.153-.209-1.463-.625a2.372 2.372 0 0 1-.468-1.452h-.134v.006Zm-1.896-.29c.374 0 .755-.322 1.13-.973.373-.643.73-1.433 1.064-2.367.334-.934.65-1.925.948-2.98.298-1.054.573-1.994.813-2.834h-.667c-.556 0-1.065.271-1.533.808-.468.537-.878 1.193-1.229 1.957-.357.764-.65 1.578-.883 2.437a17.534 17.534 0 0 0-.48 2.298c-.064.265-.1.416-.1.467 0 .48.088.795.264.953.175.158.398.234.667.234M53.002 22.038c-1.018 0-1.773-.183-2.259-.555-.486-.373-.731-.985-.731-1.85 0-.335.04-.7.117-1.092.076-.398.181-.834.316-1.307.064-.164.175-.511.333-1.042.158-.524.34-1.136.55-1.83l.65-2.153c.222-.739.421-1.42.597-2.045h-1.428l.667-2.084h1.363c.2-.644.369-1.212.515-1.704.147-.493.304-1.06.48-1.705h3.423l-1.065 3.41h2.23l-.732 2.083h-2.13l-2.06 6.925c-.199.694-.298 1.161-.298 1.401 0 .31.053.575.152.79.1.214.34.321.714.321h1.796l-.895 2.443h-2.294l-.011-.006Z"></path>
    <path fill="#BF3A33"
        d="M56.758 18.668c0-1.433.205-2.81.615-4.129.41-1.313.96-2.468 1.644-3.46.684-.99 1.492-1.786 2.41-2.386.92-.6 1.89-.896 2.909-.896.421 0 .848.07 1.281.215.433.145.82.366 1.164.662.346.297.62.676.831 1.13.211.455.316.979.316 1.579 0 1.294-.193 2.582-.579 3.876a14.083 14.083 0 0 1-1.562 3.497c-.656 1.042-1.422 1.887-2.312 2.55-.883.657-1.825.985-2.826.985-1.264 0-2.229-.328-2.896-.985-.667-.656-.995-1.534-.995-2.638Zm7.818-7.102c0-.38-.082-.663-.252-.846a.818.818 0 0 0-.614-.272c-.398 0-.808.322-1.23.966-.42.644-.807 1.408-1.164 2.28-.357.87-.65 1.754-.883 2.638-.234.884-.351 1.578-.351 2.083 0 .41.082.713.251.916a.76.76 0 0 0 .615.303c.245 0 .503-.152.784-.449.275-.296.55-.694.813-1.186.27-.493.52-1.036.767-1.636.245-.6.462-1.193.65-1.792.186-.6.339-1.162.45-1.686.11-.524.164-.972.164-1.326M75.95 22.039c-.777 0-1.45-.165-2.03-.505-.579-.335-.865-.991-.865-1.976 0-.335.064-.821.198-1.452a25.47 25.47 0 0 1 .58-2.172 42.89 42.89 0 0 1 .93-2.639c.363-.947.772-1.893 1.217-2.853h-2.294c-.11.31-.251.751-.415 1.326-.164.574-.363 1.212-.58 1.919a119.02 119.02 0 0 0-.666 2.19c-.223.751-.445 1.484-.667 2.19-.223.708-.422 1.34-.597 1.901-.176.562-.31.997-.398 1.313-.135.499-.498.751-1.1.751h-2.23l5.19-16.722c.088 0 .281 0 .58.019.298.012.608.018.93.018h1.51l-.831 2.765H80a98.645 98.645 0 0 0-1.896 4.325 43.993 43.993 0 0 0-1.065 2.885c-.246.764-.404 1.376-.48 1.83a7.24 7.24 0 0 0-.117 1.15c0 .549.117.902.352 1.06.234.158.491.234.784.234h1.995l-.866 2.443h-2.762.006Z"></path>
    <path fill="#ffffff"
        d="M50.702 32c-.716 0-1.193-.515-1.193-1.28v-2.894c0-.765.477-1.28 1.193-1.28.717 0 1.194.515 1.194 1.28v2.894c0 .765-.477 1.28-1.194 1.28Zm0-.757c.274 0 .45-.19.45-.523v-2.894c0-.333-.176-.523-.45-.523-.273 0-.449.19-.449.523v2.894c0 .333.175.523.45.523ZM47.103 31.925v-5.303h.744v5.303h-.744ZM43.11 31.925v-5.303h1.166c.71 0 1.166.5 1.166 1.265v2.773c0 .765-.457 1.265-1.166 1.265H43.11Zm.745-.758h.386c.288 0 .456-.182.456-.492v-2.803c0-.31-.168-.492-.456-.492h-.386v3.787ZM40.27 32c-.68 0-1.158-.5-1.158-1.242v-4.136h.744v4.136c0 .31.175.485.414.485s.414-.174.414-.485v-4.136h.73v4.136c0 .743-.463 1.243-1.144 1.243ZM35.28 27.38v-.758h2.373v.758h-.814v4.545h-.745V27.38h-.814ZM32.792 32c-.71 0-1.2-.545-1.2-1.303v-.19l.715-.083v.198c0 .386.183.62.478.62s.477-.196.477-.507c0-.333-.126-.576-.68-1.144-.738-.75-.949-1.159-.949-1.742 0-.788.422-1.303 1.13-1.303.71 0 1.131.515 1.131 1.31v.137l-.716.083v-.151c0-.41-.147-.622-.407-.622s-.407.175-.407.508.154.576.68 1.144c.717.773.949 1.159.949 1.742 0 .758-.492 1.303-1.201 1.303Z"></path>
</svg>